<svg xmlns="http://www.w3.org/2000/svg" width="145" height="72" fill="none"><g fill="#ff6b35" clip-path="url(#a)"><path d="M84.797 0h34.536c14.003 0 25.356 11.352 25.356 25.356v32.937h-14.185V25.356q0-.506-.039-1.004L95.929 58.287q.175.006.35.006h34.225V71.69H96.28c-14.004 0-25.668-11.464-25.668-25.468V13.374h14.185v32.848q0 .95.144 1.87l35.295-34.681a11 11 0 0 0-.903-.037H84.797zM49.913 69.222 0 13.368h20.08L49.384 46.16V13.368h14.973v50.34c0 7.599-9.382 11.18-14.444 5.514"/></g><defs fill="#ff6b35"><clipPath id="a" fill="#ff6b35"><path fill="#fff" d="M0 0h144.69v72H0z"/></clipPath></defs></svg>